<?xml version="1.0" encoding="UTF-8" standalone="no"?>
<svg width="14px" height="20px" viewBox="0 0 14 20" version="1.1" xmlns="http://www.w3.org/2000/svg" xmlns:xlink="http://www.w3.org/1999/xlink" xmlns:sketch="http://www.bohemiancoding.com/sketch/ns">
    <!-- Generator: Sketch 3.5.1 (25234) - http://www.bohemiancoding.com/sketch -->
    <title>Oval 1</title>
    <desc>Created with Sketch.</desc>
    <defs></defs>
    <g id="Page-1" stroke="none" stroke-width="1" fill="none" fill-rule="evenodd" sketch:type="MSPage">
        <g id="Artboard-20" sketch:type="MSArtboardGroup" transform="translate(-101.000000, -79.000000)" fill="#F7BB25">
            <path d="M106.976013,91.8761203 L110.190057,88.662076 C110.743066,88.9554636 111.372334,89.1214065 112.039859,89.1214065 C114.245129,89.1214065 116.032854,87.3102881 116.032854,85.0761604 C116.032854,82.8420327 114.245129,81.0309143 112.039859,81.0309143 C109.834589,81.0309143 108.046865,82.8420327 108.046865,85.0761604 C108.046865,85.6722363 108.174124,86.2382004 108.402618,86.7476891 L100.314994,94.835313 C99.9218852,95.2284222 99.9258774,95.8604702 100.318175,96.2527678 L100.748452,96.6830451 C101.136366,97.0709584 101.775366,97.0767668 102.165907,96.6862257 L103.547644,95.3044885 L104.988503,96.7453466 C105.185889,96.9427331 105.497956,96.9352517 105.695048,96.7381602 L106.39553,96.0376782 C106.60105,95.8321581 106.595839,95.5242556 106.402716,95.331133 L104.961858,93.8902749 L105.561799,93.2903338 L106.890589,94.6191239 C107.094284,94.8228185 107.410984,94.81997 107.608075,94.6228785 L108.308557,93.9223965 C108.514077,93.7168763 108.503968,93.4040754 108.304803,93.2049103 L106.976013,91.8761203 Z M112.039859,86.5931277 C112.866836,86.5931277 113.537232,85.9139583 113.537232,85.0761604 C113.537232,84.2383625 112.866836,83.5591931 112.039859,83.5591931 C111.212883,83.5591931 110.542486,84.2383625 110.542486,85.0761604 C110.542486,85.9139583 111.212883,86.5931277 112.039859,86.5931277 Z" id="Oval-1" sketch:type="MSShapeGroup" transform="translate(108.027452, 89.003740) rotate(-251.000000) translate(-108.027452, -89.003740) "></path>
        </g>
    </g>
</svg>