<?xml version="1.0" encoding="UTF-8" standalone="no"?>
<svg width="29px" height="26px" viewBox="0 0 29 26" version="1.1" xmlns="http://www.w3.org/2000/svg" xmlns:xlink="http://www.w3.org/1999/xlink" xmlns:sketch="http://www.bohemiancoding.com/sketch/ns">
    <!-- Generator: Sketch 3.5.1 (25234) - http://www.bohemiancoding.com/sketch -->
    <title>Fill 1</title>
    <desc>Created with Sketch.</desc>
    <defs></defs>
    <g id="Mocks" stroke="none" stroke-width="1" fill="none" fill-rule="evenodd" sketch:type="MSPage">
        <g id="Desktop-Copy-20" sketch:type="MSArtboardGroup" transform="translate(-286.000000, -931.000000)" fill="#FFFFFF">
            <g id="Bitmap" sketch:type="MSLayerGroup">
                <g id="PATRICKSWONG-+-Fill-1" transform="translate(289.000000, 934.000000)" sketch:type="MSShapeGroup">
                    <path d="M22.9746996,2.32628663 C22.1293779,2.72085583 21.2209449,2.98752836 20.2674684,3.10746466 C21.2406934,2.49345448 21.9880288,1.52122747 22.339973,0.362816157 C21.429271,0.931275309 20.4204986,1.34415337 19.3468501,1.56669005 C18.4869901,0.602511863 17.2619921,0 15.9063176,0 C13.3031234,0 11.1926343,2.22120969 11.1926343,4.96090507 C11.1926343,5.34972512 11.2344004,5.72837358 11.3147391,6.09145508 C7.39730032,5.8845738 3.92416172,3.90951657 1.59937995,0.908101776 C1.19365241,1.64080998 0.961207851,2.49301224 0.961207851,3.4021754 C0.961207851,5.1232967 1.79341989,6.64178227 3.05816707,7.53139829 C2.28545276,7.50565974 1.55870635,7.28250393 0.923139381,6.91093136 C0.922803236,6.93162833 0.922803236,6.95241375 0.922803236,6.97328762 C0.922803236,9.37696677 2.54756216,11.3820965 4.70385104,11.8377837 C4.30829191,11.9511748 3.89189176,12.0117621 3.46196176,12.0117621 C3.15825437,12.0117621 2.86295061,11.9807167 2.57521012,11.9227828 C3.1749776,13.8937714 4.9157067,15.3280539 6.97829504,15.3681211 C5.36513314,16.6986534 3.33271384,17.491772 1.12440646,17.491772 C0.743973868,17.491772 0.368751534,17.4683331 0,17.4225168 C2.08595045,18.8300878 4.56359436,19.651333 7.22544597,19.651333 C15.8953088,19.651333 20.636304,12.0918965 20.636304,5.53617477 C20.636304,5.32106777 20.631766,5.10711061 20.6226901,4.89439173 C21.5435605,4.1949402 22.3427462,3.32115648 22.9746996,2.32628663" id="Fill-1"></path>
                </g>
            </g>
        </g>
    </g>
</svg>